<svg width="324" height="512" viewBox="0 0 324 512" fill="none" xmlns="http://www.w3.org/2000/svg">
    <g style="mix-blend-mode:multiply">
        <path d="M19.9229 304.098C-6.64098 277.534 -6.64095 234.466 19.9229 207.902L207.766 20.0593C244.235 -16.4097 302.735 0.140971 319.352 43.2363C325.338 58.7623 319.22 75.6436 310.419 89.7661L236.864 207.804C219.031 236.421 218.902 272.659 236.53 301.402L310.754 422.431C319.34 436.432 325.303 453.089 319.474 468.444C303.024 511.777 244.325 528.5 207.765 491.941L19.9229 304.098Z" fill="#FF5470"/>
    </g>
    <g style="mix-blend-mode:multiply">
        <path d="M12.6992 88.7004C4.39735 75.2708 -1.31174 59.3011 4.07497 44.46C20.0463 0.457133 79.307 -16.7529 116.119 20.0593L303.962 207.902C330.526 234.466 330.526 277.534 303.962 304.098L116.119 491.941C79.3069 528.753 20.0462 511.543 4.07496 467.54C-1.31174 452.699 4.39736 436.729 12.6992 423.299L88.4903 300.694C105.423 273.304 105.423 238.696 88.4903 211.306L12.6992 88.7004Z" fill="#00EBC7"/>
    </g>
    <path d="M168.815 214.724H154.909V158.954H133.953V145H189.722V158.954H168.815V214.724Z" fill="white"/>
    <path d="M168.815 290.765H154.86V221.041H168.815V290.765Z" fill="white"/>
    <path d="M196.675 366.806H182.769V317.017C182.769 316.045 182.575 315.137 182.186 314.294C181.829 313.451 181.327 312.722 180.679 312.106C180.063 311.458 179.333 310.956 178.491 310.599C177.648 310.242 176.74 310.064 175.768 310.064C174.795 310.064 173.888 310.242 173.045 310.599C172.202 310.956 171.457 311.458 170.808 312.106C170.192 312.722 169.706 313.451 169.35 314.294C168.993 315.137 168.815 316.045 168.815 317.017V366.806H154.86V317.017C154.86 316.045 154.682 315.137 154.325 314.294C153.969 313.451 153.467 312.722 152.818 312.106C152.202 311.458 151.473 310.956 150.63 310.599C149.787 310.242 148.88 310.064 147.907 310.064C146.935 310.064 146.027 310.242 145.185 310.599C144.342 310.956 143.596 311.458 142.948 312.106C142.332 312.722 141.846 313.451 141.489 314.294C141.133 315.137 140.954 316.045 140.954 317.017V366.806H127V317.017C127 314.132 127.535 311.426 128.605 308.897C129.707 306.336 131.198 304.116 133.078 302.236C134.99 300.324 137.211 298.833 139.739 297.763C142.3 296.661 145.023 296.11 147.907 296.11C150.501 296.11 152.996 296.58 155.395 297.52C157.794 298.427 159.949 299.756 161.862 301.507C163.774 299.756 165.914 298.427 168.28 297.52C170.679 296.58 173.175 296.11 175.768 296.11C178.653 296.11 181.359 296.661 183.888 297.763C186.448 298.833 188.669 300.324 190.549 302.236C192.461 304.116 193.952 306.336 195.022 308.897C196.124 311.426 196.675 314.132 196.675 317.017V366.806Z" fill="white"/>
</svg>
