<svg version="1" xmlns="http://www.w3.org/2000/svg" width="1365.333" height="1365.333" viewBox="0 0 1024.000000 1024.000000"><path d="M311.9.4c-.2.2-2.6.6-5.4.9-5.8.7-10.2 1.5-13 2.4-1.1.4-2.7.8-3.5 1-2 .5-2.6.7-9.4 2.7-3.2.9-7 2.5-8.4 3.4-1.5.9-2.6 1.5-2.7 1.2 0-.7-14 6.3-14.3 7.2-.2.4-.8.8-1.3.8-1 0-11.8 7.3-16.4 11-5.9 4.9-20.1 19.6-23 24-1.6 2.5-3.2 4.7-3.6 5-2.2 2-11.5 20-14.7 28.5-2.1 5.5-3.9 15-3.8 20.2.1 2.9-.3 5.3-.7 5.3-.5 0-.5.5-.2 1.1.4.5.8 3.4 1 6.2.7 11.5 5.1 25.9 12.3 40.2 2.5 4.9 5 10 5.6 11.2.6 1.3 1.4 2.3 1.9 2.3.4 0 .7.4.7.9 0 .7 17.4 29.3 23.8 39.1.9 1.4 1.7 2.7 1.7 3 0 .3 1.6 3 3.6 6 1.9 3 5.3 8.4 7.4 12 2.2 3.6 4.2 6.7 4.5 7 .5.5 1.8 2.7 4.4 7.5.6 1.1 1.3 2.2 1.6 2.5 1.3 1.2 10 15.9 10 16.9 0 .6.4 1.1.8 1.1.5 0 1.5 1.2 2.3 2.7.7 1.6 2.3 4.1 3.4 5.8 1.1 1.6 2.5 3.9 3.2 5 1.3 2.2 9.6 15.8 11.6 18.9.7 1.1 4 6.5 7.4 12 3.4 5.6 6.6 10.6 7 11.1.4.6 1.6 2.5 2.5 4.2l1.8 3.1-4 3.6c-2.2 2-4 3.7-4 3.9 0 .2-17.9 18.2-39.7 40.1-21.9 21.8-42 42.7-44.8 46.3-2.7 3.5-5.4 7-6 7.7-5 6-17.3 32.8-18.9 41.1-.3 1.6-1.3 5.9-2.1 9.5-2.4 9.9-2.7 38.1-.5 49 4.8 23.5 11.2 38.8 23.4 55.9 6.3 8.8 6.1 8.6 52.1 54.8 24.2 24.4 43.9 44.7 43.8 45.2-.1.5-3 5.4-6.5 11s-7.2 11.7-8.3 13.5c-7.7 12.9-26 42.2-26.5 42.6-.4.3-.9 1-1.1 1.5-.2.6-5.3 8.9-11.2 18.5-6 9.6-11.4 18.4-12 19.5-1.5 2.5-7.3 11.8-10.2 16.5-30.5 48.2-37.8 63.7-41.1 87.5-.8 6-.8 5.2 0 14.5.6 8 .8 8.8 2.9 16.5 2.9 10.5 14.4 31.1 22.7 41 7.6 9 21.6 21.8 28.4 25.9 1.7 1 3.3 2.1 3.6 2.5.3.3 2.3 1.6 4.5 2.8 2.2 1.1 5.6 3 7.5 4.1 10 5.5 26.8 10.9 42.3 13.6 8.1 1.4 34.9 1.5 41.7.1 1.9-.4 4.4-.8 5.5-1 1.1-.2 2-.4 2-.5 0-.2 1.8-.6 5.5-1.4 9.7-2.1 28.8-10.7 39.5-17.9 10.6-7.1 16.1-12.3 64.8-61 26.3-26.2 48.2-47.7 48.6-47.7.4 0 22.8 22 49.7 48.8 50.1 50 57 56.3 70.9 64.4 13.2 7.7 32.2 14.3 46.5 16.3 1.4.1 2.5.4 2.5.5 0 .1 6.3.4 14 .5 9.1.3 17.3-.2 23.5-1.1 9.4-1.5 12.3-2.1 12.8-2.4.1-.2.5-.3 1-.4 2.9-.6 10.9-3 11.7-3.6.6-.4 2.4-1 4-1.4 5.4-1.3 29.3-14.3 32.5-17.6.3-.3 2.8-2.3 5.5-4.5 7.1-5.7 16.7-15.6 23.1-24 6.9-9 17.6-29.5 18.9-36.5.2-.8.4-1.5.5-1.5.2 0 .5-1.5 1.8-8.5 1.1-5.8.5-23.3-.8-27-.2-.3-.2-.9-.1-1.4.1-.5-.5-3.2-1.4-6-.9-2.8-1.7-5.8-1.9-6.6-.2-.8-.8-2.6-1.3-4-.6-1.4-2.1-5-3.3-8-2.4-6-9.8-20.2-13.9-26.5-3.3-5.1-4.3-6.7-8.6-14-2-3.3-4.9-8-6.5-10.5-1.7-2.5-3.3-5.2-3.7-6-.3-.8-1.8-3.3-3.2-5.5-3.4-5.3-4.4-6.9-8.3-13.5-1.7-3-3.5-5.7-3.8-6-.4-.3-1.4-1.9-2.3-3.6-1.6-3-11.8-19.8-13.4-22-.9-1.1-3.1-4.8-4.7-7.9-.6-1.1-2.1-3.4-3.3-5.2-1.3-1.7-2.3-3.6-2.3-4.2 0-.6-.4-1.1-1-1.1-.5 0-1-.5-1-1.2 0-.6-1.1-2.6-2.6-4.5-1.4-1.8-2.2-3.3-1.8-3.3.4 0 0-.8-.8-1.8-1.3-1.5-7.1-10.7-14.3-22.6-8.8-14.6-11-18.2-11.8-18.7-.4-.3 19.2-20.6 43.6-45.2 24.5-24.5 46.4-47.1 48.8-50.4 2.3-3.2 4.5-6 4.9-6.3 1.6-1.3 10.2-17.5 13.4-25.2 3.7-9.1 8.1-24.8 9.2-33.3 2.1-15.9.7-37.7-3.6-53.5-1.1-4.1-2.1-8-2.3-8.7-.2-.7-.6-1.6-1-1.9-.4-.4-.7-1.3-.7-2.1 0-2.2-8.6-19.3-13.2-26.3-7.4-11.3-9.2-13.3-55.6-59.8-24.9-25-44.9-45.8-44.5-46.1.4-.3 1.5-1.9 2.3-3.4 1.4-2.5 34.2-55.5 39.5-63.7 1.3-1.9 5.8-9.1 10-16 4.3-6.9 8.5-13.6 9.4-15 .9-1.4 2-3.3 2.6-4.2.5-1 3.9-6.4 7.5-12 3.6-5.7 7-11.1 7.5-12 .6-.9 3.7-6 7-11.3 3.3-5.2 6.5-10.3 7-11.3.6-.9 2.2-3.5 3.6-5.7 6.6-10.4 16.7-33.2 18.3-41.6.2-1.3 1-4.7 1.6-7.4 1.6-6.6 1.6-22.5.1-30-2.9-14.2-10.8-30.4-21.9-44.9-5.6-7.3-19.8-21.7-20.6-20.9-.3.4-.6.2-.6-.4 0-2.2-29-20.3-32.7-20.4-.5-.1-1.9-.7-3.3-1.4-3.1-1.7-13.4-5.1-19.7-6.6-2.7-.6-5.7-1.3-6.8-1.5-5.2-1.2-10.1-1.6-24-1.7-24.3-.3-39.1 2.8-59.5 12.6-1.4.6-5.4 2.8-8.9 4.9-3.4 2.1-6.5 3.8-6.7 3.8-.3 0-1 .5-1.7 1-.7.6-3.7 2.9-6.7 5.2-3 2.3-27.7 26.2-54.7 53.2-27.1 27-49.7 49.2-50.2 49.4-.4.1-23.3-22.1-50.7-49.5-53.2-53.1-59.2-58.4-77.5-67.4-4.6-2.3-8.8-4.2-9.4-4.4-.5-.1-2.3-.7-4-1.4-3.8-1.6-15.3-4.7-22.5-6.2-5.1-1-35.2-2.3-36.1-1.5z"/></svg>